<mxfile host="app.diagrams.net" modified="2022-12-05T03:43:49.789Z" agent="5.0 (Windows NT 10.0; Win64; x64) AppleWebKit/537.36 (KHTML, like Gecko) Chrome/107.0.0.0 Safari/537.36" etag="2ZPkf7y54rENtoPBWG0e" version="20.6.0" type="github">
  <diagram id="C5RBs43oDa-KdzZeNtuy" name="Page-1">
    <mxGraphModel dx="696" dy="469" grid="1" gridSize="10" guides="1" tooltips="1" connect="1" arrows="1" fold="1" page="1" pageScale="1" pageWidth="827" pageHeight="1169" math="0" shadow="0">
      <root>
        <mxCell id="WIyWlLk6GJQsqaUBKTNV-0" />
        <mxCell id="WIyWlLk6GJQsqaUBKTNV-1" parent="WIyWlLk6GJQsqaUBKTNV-0" />
        <mxCell id="WIyWlLk6GJQsqaUBKTNV-2" value="" style="rounded=0;html=1;jettySize=auto;orthogonalLoop=1;fontSize=11;endArrow=block;endFill=0;endSize=8;strokeWidth=1;shadow=0;labelBackgroundColor=none;edgeStyle=orthogonalEdgeStyle;" parent="WIyWlLk6GJQsqaUBKTNV-1" source="WIyWlLk6GJQsqaUBKTNV-3" edge="1">
          <mxGeometry relative="1" as="geometry">
            <mxPoint x="220" y="170" as="targetPoint" />
          </mxGeometry>
        </mxCell>
        <mxCell id="WIyWlLk6GJQsqaUBKTNV-3" value="Staert" style="rounded=1;whiteSpace=wrap;html=1;fontSize=12;glass=0;strokeWidth=1;shadow=0;" parent="WIyWlLk6GJQsqaUBKTNV-1" vertex="1">
          <mxGeometry x="160" y="80" width="120" height="40" as="geometry" />
        </mxCell>
        <mxCell id="wm0_YW9FIha9O1YuoVwk-4" value="" style="edgeStyle=orthogonalEdgeStyle;rounded=0;orthogonalLoop=1;jettySize=auto;html=1;" edge="1" parent="WIyWlLk6GJQsqaUBKTNV-1" source="wm0_YW9FIha9O1YuoVwk-0" target="wm0_YW9FIha9O1YuoVwk-1">
          <mxGeometry relative="1" as="geometry" />
        </mxCell>
        <mxCell id="wm0_YW9FIha9O1YuoVwk-0" value="Generate Random Word" style="rounded=1;whiteSpace=wrap;html=1;" vertex="1" parent="WIyWlLk6GJQsqaUBKTNV-1">
          <mxGeometry x="160" y="190" width="120" height="60" as="geometry" />
        </mxCell>
        <mxCell id="wm0_YW9FIha9O1YuoVwk-6" value="" style="edgeStyle=orthogonalEdgeStyle;rounded=0;orthogonalLoop=1;jettySize=auto;html=1;" edge="1" parent="WIyWlLk6GJQsqaUBKTNV-1" source="wm0_YW9FIha9O1YuoVwk-1" target="wm0_YW9FIha9O1YuoVwk-5">
          <mxGeometry relative="1" as="geometry" />
        </mxCell>
        <mxCell id="wm0_YW9FIha9O1YuoVwk-1" value="Generate Blank spaces for letters in word" style="rounded=1;whiteSpace=wrap;html=1;" vertex="1" parent="WIyWlLk6GJQsqaUBKTNV-1">
          <mxGeometry x="160" y="310" width="120" height="60" as="geometry" />
        </mxCell>
        <mxCell id="wm0_YW9FIha9O1YuoVwk-8" value="" style="edgeStyle=orthogonalEdgeStyle;rounded=0;orthogonalLoop=1;jettySize=auto;html=1;" edge="1" parent="WIyWlLk6GJQsqaUBKTNV-1" source="wm0_YW9FIha9O1YuoVwk-5" target="wm0_YW9FIha9O1YuoVwk-7">
          <mxGeometry relative="1" as="geometry" />
        </mxCell>
        <mxCell id="wm0_YW9FIha9O1YuoVwk-5" value="Ask user to guess letter" style="rounded=1;whiteSpace=wrap;html=1;" vertex="1" parent="WIyWlLk6GJQsqaUBKTNV-1">
          <mxGeometry x="160" y="420" width="120" height="60" as="geometry" />
        </mxCell>
        <mxCell id="wm0_YW9FIha9O1YuoVwk-21" value="YES" style="edgeStyle=orthogonalEdgeStyle;rounded=0;orthogonalLoop=1;jettySize=auto;html=1;exitX=0;exitY=0.5;exitDx=0;exitDy=0;entryX=0.5;entryY=0;entryDx=0;entryDy=0;" edge="1" parent="WIyWlLk6GJQsqaUBKTNV-1" source="wm0_YW9FIha9O1YuoVwk-7" target="wm0_YW9FIha9O1YuoVwk-9">
          <mxGeometry relative="1" as="geometry" />
        </mxCell>
        <mxCell id="wm0_YW9FIha9O1YuoVwk-7" value="Is letter in word?" style="rhombus;whiteSpace=wrap;html=1;" vertex="1" parent="WIyWlLk6GJQsqaUBKTNV-1">
          <mxGeometry x="180" y="545" width="80" height="80" as="geometry" />
        </mxCell>
        <mxCell id="wm0_YW9FIha9O1YuoVwk-24" style="edgeStyle=orthogonalEdgeStyle;rounded=0;orthogonalLoop=1;jettySize=auto;html=1;entryX=0.5;entryY=0;entryDx=0;entryDy=0;fontSize=11;" edge="1" parent="WIyWlLk6GJQsqaUBKTNV-1" source="wm0_YW9FIha9O1YuoVwk-9" target="wm0_YW9FIha9O1YuoVwk-22">
          <mxGeometry relative="1" as="geometry" />
        </mxCell>
        <mxCell id="wm0_YW9FIha9O1YuoVwk-9" value="Replace blank with letter&amp;nbsp;" style="rounded=1;whiteSpace=wrap;html=1;" vertex="1" parent="WIyWlLk6GJQsqaUBKTNV-1">
          <mxGeometry x="70" y="660" width="90" height="60" as="geometry" />
        </mxCell>
        <mxCell id="wm0_YW9FIha9O1YuoVwk-26" style="edgeStyle=orthogonalEdgeStyle;rounded=0;orthogonalLoop=1;jettySize=auto;html=1;entryX=0.5;entryY=0;entryDx=0;entryDy=0;fontSize=11;" edge="1" parent="WIyWlLk6GJQsqaUBKTNV-1" source="wm0_YW9FIha9O1YuoVwk-10" target="wm0_YW9FIha9O1YuoVwk-23">
          <mxGeometry relative="1" as="geometry" />
        </mxCell>
        <mxCell id="wm0_YW9FIha9O1YuoVwk-10" value="Lose life" style="rounded=1;whiteSpace=wrap;html=1;" vertex="1" parent="WIyWlLk6GJQsqaUBKTNV-1">
          <mxGeometry x="280" y="660" width="90" height="50" as="geometry" />
        </mxCell>
        <mxCell id="wm0_YW9FIha9O1YuoVwk-17" value="NO" style="endArrow=classic;html=1;rounded=0;entryX=0.5;entryY=0;entryDx=0;entryDy=0;exitX=1;exitY=0.5;exitDx=0;exitDy=0;" edge="1" parent="WIyWlLk6GJQsqaUBKTNV-1" source="wm0_YW9FIha9O1YuoVwk-7" target="wm0_YW9FIha9O1YuoVwk-10">
          <mxGeometry width="50" height="50" relative="1" as="geometry">
            <mxPoint x="170" y="560" as="sourcePoint" />
            <mxPoint x="340" y="570" as="targetPoint" />
            <Array as="points">
              <mxPoint x="325" y="585" />
            </Array>
          </mxGeometry>
        </mxCell>
        <mxCell id="wm0_YW9FIha9O1YuoVwk-27" value="NO" style="edgeStyle=orthogonalEdgeStyle;rounded=0;orthogonalLoop=1;jettySize=auto;html=1;entryX=0;entryY=0.5;entryDx=0;entryDy=0;fontSize=11;" edge="1" parent="WIyWlLk6GJQsqaUBKTNV-1" source="wm0_YW9FIha9O1YuoVwk-22" target="wm0_YW9FIha9O1YuoVwk-5">
          <mxGeometry relative="1" as="geometry">
            <Array as="points">
              <mxPoint x="40" y="860" />
              <mxPoint x="40" y="450" />
            </Array>
          </mxGeometry>
        </mxCell>
        <mxCell id="wm0_YW9FIha9O1YuoVwk-30" value="YES" style="edgeStyle=orthogonalEdgeStyle;rounded=0;orthogonalLoop=1;jettySize=auto;html=1;entryX=0;entryY=0.5;entryDx=0;entryDy=0;fontSize=11;" edge="1" parent="WIyWlLk6GJQsqaUBKTNV-1" source="wm0_YW9FIha9O1YuoVwk-22" target="wm0_YW9FIha9O1YuoVwk-29">
          <mxGeometry relative="1" as="geometry" />
        </mxCell>
        <mxCell id="wm0_YW9FIha9O1YuoVwk-22" value="Are all the blanks filled?" style="rhombus;whiteSpace=wrap;html=1;" vertex="1" parent="WIyWlLk6GJQsqaUBKTNV-1">
          <mxGeometry x="67.5" y="810" width="95" height="100" as="geometry" />
        </mxCell>
        <mxCell id="wm0_YW9FIha9O1YuoVwk-28" value="NO" style="edgeStyle=orthogonalEdgeStyle;rounded=0;orthogonalLoop=1;jettySize=auto;html=1;entryX=1;entryY=0.5;entryDx=0;entryDy=0;fontSize=11;" edge="1" parent="WIyWlLk6GJQsqaUBKTNV-1" source="wm0_YW9FIha9O1YuoVwk-23" target="wm0_YW9FIha9O1YuoVwk-5">
          <mxGeometry relative="1" as="geometry">
            <Array as="points">
              <mxPoint x="400" y="875" />
              <mxPoint x="400" y="450" />
            </Array>
          </mxGeometry>
        </mxCell>
        <mxCell id="wm0_YW9FIha9O1YuoVwk-31" value="YES" style="edgeStyle=orthogonalEdgeStyle;rounded=0;orthogonalLoop=1;jettySize=auto;html=1;entryX=1;entryY=0.5;entryDx=0;entryDy=0;fontSize=11;" edge="1" parent="WIyWlLk6GJQsqaUBKTNV-1" source="wm0_YW9FIha9O1YuoVwk-23" target="wm0_YW9FIha9O1YuoVwk-29">
          <mxGeometry relative="1" as="geometry" />
        </mxCell>
        <mxCell id="wm0_YW9FIha9O1YuoVwk-23" value="&lt;font style=&quot;font-size: 11px;&quot;&gt;Has the user run out of lives?&lt;/font&gt;" style="rhombus;whiteSpace=wrap;html=1;" vertex="1" parent="WIyWlLk6GJQsqaUBKTNV-1">
          <mxGeometry x="262.5" y="820" width="125" height="110" as="geometry" />
        </mxCell>
        <mxCell id="wm0_YW9FIha9O1YuoVwk-29" value="Game over" style="rounded=1;whiteSpace=wrap;html=1;fontSize=11;" vertex="1" parent="WIyWlLk6GJQsqaUBKTNV-1">
          <mxGeometry x="150" y="980" width="120" height="60" as="geometry" />
        </mxCell>
      </root>
    </mxGraphModel>
  </diagram>
</mxfile>
